<svg width="151" height="150" viewBox="0 0 151 150" fill="none" xmlns="http://www.w3.org/2000/svg">
<circle cx="75.125" cy="75" r="75" fill="#FED136"/>
<path d="M63.7344 43.1279H58.5928V46.4238H62.8906C63.2891 46.4238 63.585 46.5146 63.7783 46.6963C63.9775 46.8721 64.0771 47.1094 64.0771 47.4082C64.0771 47.707 63.9775 47.9443 63.7783 48.1201C63.5791 48.2959 63.2832 48.3838 62.8906 48.3838H58.5928V52.6289C58.5928 53.168 58.4697 53.5693 58.2236 53.833C57.9834 54.0908 57.6729 54.2197 57.292 54.2197C56.9053 54.2197 56.5889 54.0879 56.3428 53.8242C56.1025 53.5605 55.9824 53.1621 55.9824 52.6289V42.7148C55.9824 42.3398 56.0381 42.0352 56.1494 41.8008C56.2607 41.5605 56.4336 41.3877 56.668 41.2822C56.9082 41.1709 57.2129 41.1152 57.582 41.1152H63.7344C64.1504 41.1152 64.458 41.209 64.6572 41.3965C64.8623 41.5781 64.9648 41.8184 64.9648 42.1172C64.9648 42.4219 64.8623 42.668 64.6572 42.8555C64.458 43.0371 64.1504 43.1279 63.7344 43.1279ZM72.7607 49.9307H68.0674C68.0732 50.4756 68.1816 50.9561 68.3926 51.3721C68.6094 51.7881 68.8936 52.1016 69.2451 52.3125C69.6025 52.5234 69.9951 52.6289 70.4229 52.6289C70.71 52.6289 70.9707 52.5967 71.2051 52.5322C71.4453 52.4619 71.6768 52.3564 71.8994 52.2158C72.1221 52.0693 72.3271 51.9141 72.5146 51.75C72.7021 51.5859 72.9453 51.3633 73.2441 51.082C73.3672 50.9766 73.543 50.9238 73.7715 50.9238C74.0176 50.9238 74.2168 50.9912 74.3691 51.126C74.5215 51.2607 74.5977 51.4512 74.5977 51.6973C74.5977 51.9141 74.5127 52.1689 74.3428 52.4619C74.1729 52.749 73.915 53.0273 73.5693 53.2969C73.2295 53.5605 72.7988 53.7803 72.2773 53.9561C71.7617 54.1318 71.167 54.2197 70.4932 54.2197C68.9521 54.2197 67.7539 53.7803 66.8984 52.9014C66.043 52.0225 65.6152 50.8301 65.6152 49.3242C65.6152 48.6152 65.7207 47.959 65.9316 47.3555C66.1426 46.7461 66.4502 46.2246 66.8545 45.791C67.2588 45.3574 67.7568 45.0264 68.3486 44.7979C68.9404 44.5635 69.5967 44.4463 70.3174 44.4463C71.2549 44.4463 72.0576 44.6455 72.7256 45.0439C73.3994 45.4365 73.9033 45.9463 74.2373 46.5732C74.5713 47.2002 74.7383 47.8389 74.7383 48.4893C74.7383 49.0928 74.5654 49.4854 74.2197 49.667C73.874 49.8428 73.3877 49.9307 72.7607 49.9307ZM68.0674 48.5684H72.418C72.3594 47.748 72.1367 47.1357 71.75 46.7314C71.3691 46.3213 70.8652 46.1162 70.2383 46.1162C69.6406 46.1162 69.1484 46.3242 68.7617 46.7402C68.3809 47.1504 68.1494 47.7598 68.0674 48.5684ZM83.4658 49.9307H78.7725C78.7783 50.4756 78.8867 50.9561 79.0977 51.3721C79.3145 51.7881 79.5986 52.1016 79.9502 52.3125C80.3076 52.5234 80.7002 52.6289 81.1279 52.6289C81.415 52.6289 81.6758 52.5967 81.9102 52.5322C82.1504 52.4619 82.3818 52.3564 82.6045 52.2158C82.8271 52.0693 83.0322 51.9141 83.2197 51.75C83.4072 51.5859 83.6504 51.3633 83.9492 51.082C84.0723 50.9766 84.248 50.9238 84.4766 50.9238C84.7227 50.9238 84.9219 50.9912 85.0742 51.126C85.2266 51.2607 85.3027 51.4512 85.3027 51.6973C85.3027 51.9141 85.2178 52.1689 85.0479 52.4619C84.8779 52.749 84.6201 53.0273 84.2744 53.2969C83.9346 53.5605 83.5039 53.7803 82.9824 53.9561C82.4668 54.1318 81.8721 54.2197 81.1982 54.2197C79.6572 54.2197 78.459 53.7803 77.6035 52.9014C76.748 52.0225 76.3203 50.8301 76.3203 49.3242C76.3203 48.6152 76.4258 47.959 76.6367 47.3555C76.8477 46.7461 77.1553 46.2246 77.5596 45.791C77.9639 45.3574 78.4619 45.0264 79.0537 44.7979C79.6455 44.5635 80.3018 44.4463 81.0225 44.4463C81.96 44.4463 82.7627 44.6455 83.4307 45.0439C84.1045 45.4365 84.6084 45.9463 84.9424 46.5732C85.2764 47.2002 85.4434 47.8389 85.4434 48.4893C85.4434 49.0928 85.2705 49.4854 84.9248 49.667C84.5791 49.8428 84.0928 49.9307 83.4658 49.9307ZM78.7725 48.5684H83.123C83.0645 47.748 82.8418 47.1357 82.4551 46.7314C82.0742 46.3213 81.5703 46.1162 80.9434 46.1162C80.3457 46.1162 79.8535 46.3242 79.4668 46.7402C79.0859 47.1504 78.8545 47.7598 78.7725 48.5684ZM87.4736 52.7607V42.3545C87.4736 41.874 87.5791 41.5107 87.79 41.2646C88.0068 41.0186 88.2969 40.8955 88.6602 40.8955C89.0234 40.8955 89.3164 41.0186 89.5391 41.2646C89.7617 41.5049 89.873 41.8682 89.873 42.3545V52.7607C89.873 53.2471 89.7588 53.6133 89.5303 53.8594C89.3076 54.0996 89.0176 54.2197 88.6602 54.2197C88.3086 54.2197 88.0215 54.0938 87.7988 53.8418C87.582 53.5898 87.4736 53.2295 87.4736 52.7607ZM47.4043 69.6738V63.4775C47.4043 62.9502 47.5215 62.5547 47.7559 62.291C47.9961 62.0273 48.3096 61.8955 48.6963 61.8955C49.1006 61.8955 49.4199 62.0273 49.6543 62.291C49.8945 62.5547 50.0146 62.9502 50.0146 63.4775V69.8145C50.0146 70.5352 50.0938 71.1387 50.252 71.625C50.416 72.1055 50.7031 72.4805 51.1133 72.75C51.5234 73.0137 52.0977 73.1455 52.8359 73.1455C53.8555 73.1455 54.5762 72.876 54.998 72.3369C55.4199 71.792 55.6309 70.9688 55.6309 69.8672V63.4775C55.6309 62.9443 55.748 62.5488 55.9824 62.291C56.2168 62.0273 56.5303 61.8955 56.9229 61.8955C57.3154 61.8955 57.6318 62.0273 57.8721 62.291C58.1182 62.5488 58.2412 62.9443 58.2412 63.4775V69.6738C58.2412 70.6816 58.1416 71.5225 57.9424 72.1963C57.749 72.8701 57.3799 73.4619 56.835 73.9717C56.3662 74.4053 55.8213 74.7217 55.2002 74.9209C54.5791 75.1201 53.8525 75.2197 53.0205 75.2197C52.0303 75.2197 51.1777 75.1143 50.4629 74.9033C49.748 74.6865 49.165 74.3555 48.7139 73.9102C48.2627 73.459 47.9316 72.8848 47.7207 72.1875C47.5098 71.4844 47.4043 70.6465 47.4043 69.6738ZM63.0752 66.791V67.0811C63.4971 66.5244 63.957 66.1172 64.4551 65.8594C64.959 65.5957 65.5361 65.4639 66.1865 65.4639C66.8193 65.4639 67.3848 65.6016 67.8828 65.877C68.3809 66.1523 68.7529 66.542 68.999 67.0459C69.1572 67.3389 69.2598 67.6553 69.3066 67.9951C69.3535 68.335 69.377 68.7686 69.377 69.2959V73.7607C69.377 74.2412 69.2656 74.6045 69.043 74.8506C68.8262 75.0967 68.542 75.2197 68.1904 75.2197C67.833 75.2197 67.543 75.0938 67.3203 74.8418C67.0977 74.5898 66.9863 74.2295 66.9863 73.7607V69.7617C66.9863 68.9707 66.875 68.3672 66.6523 67.9512C66.4355 67.5293 65.999 67.3184 65.3428 67.3184C64.915 67.3184 64.5254 67.4473 64.1738 67.7051C63.8223 67.957 63.5645 68.3057 63.4004 68.751C63.2832 69.1084 63.2246 69.7764 63.2246 70.7549V73.7607C63.2246 74.2471 63.1104 74.6133 62.8818 74.8594C62.6592 75.0996 62.3691 75.2197 62.0117 75.2197C61.666 75.2197 61.3818 75.0938 61.1592 74.8418C60.9365 74.5898 60.8252 74.2295 60.8252 73.7607V66.8262C60.8252 66.3691 60.9248 66.0293 61.124 65.8066C61.3232 65.5781 61.5957 65.4639 61.9414 65.4639C62.1523 65.4639 62.3428 65.5137 62.5127 65.6133C62.6826 65.7129 62.8174 65.8623 62.917 66.0615C63.0225 66.2607 63.0752 66.5039 63.0752 66.791ZM74.1582 71.7568V73.7607C74.1582 74.2471 74.0439 74.6133 73.8154 74.8594C73.5869 75.0996 73.2969 75.2197 72.9453 75.2197C72.5996 75.2197 72.3154 75.0967 72.0928 74.8506C71.8701 74.6045 71.7588 74.2412 71.7588 73.7607V67.0811C71.7588 66.0029 72.1484 65.4639 72.9277 65.4639C73.3262 65.4639 73.6133 65.5898 73.7891 65.8418C73.9648 66.0938 74.0615 66.4658 74.0791 66.958C74.3662 66.4658 74.6592 66.0938 74.958 65.8418C75.2627 65.5898 75.667 65.4639 76.1709 65.4639C76.6748 65.4639 77.1641 65.5898 77.6387 65.8418C78.1133 66.0938 78.3506 66.4277 78.3506 66.8438C78.3506 67.1367 78.248 67.3799 78.043 67.5732C77.8438 67.7607 77.627 67.8545 77.3926 67.8545C77.3047 67.8545 77.0908 67.8018 76.751 67.6963C76.417 67.585 76.1211 67.5293 75.8633 67.5293C75.5117 67.5293 75.2246 67.623 75.002 67.8105C74.7793 67.9922 74.6064 68.2646 74.4834 68.6279C74.3604 68.9912 74.2754 69.4248 74.2285 69.9287C74.1816 70.4268 74.1582 71.0361 74.1582 71.7568ZM85.9092 70.9307H81.2158C81.2217 71.4756 81.3301 71.9561 81.541 72.3721C81.7578 72.7881 82.042 73.1016 82.3936 73.3125C82.751 73.5234 83.1436 73.6289 83.5713 73.6289C83.8584 73.6289 84.1191 73.5967 84.3535 73.5322C84.5938 73.4619 84.8252 73.3564 85.0479 73.2158C85.2705 73.0693 85.4756 72.9141 85.6631 72.75C85.8506 72.5859 86.0938 72.3633 86.3926 72.082C86.5156 71.9766 86.6914 71.9238 86.9199 71.9238C87.166 71.9238 87.3652 71.9912 87.5176 72.126C87.6699 72.2607 87.7461 72.4512 87.7461 72.6973C87.7461 72.9141 87.6611 73.1689 87.4912 73.4619C87.3213 73.749 87.0635 74.0273 86.7178 74.2969C86.3779 74.5605 85.9473 74.7803 85.4258 74.9561C84.9102 75.1318 84.3154 75.2197 83.6416 75.2197C82.1006 75.2197 80.9023 74.7803 80.0469 73.9014C79.1914 73.0225 78.7637 71.8301 78.7637 70.3242C78.7637 69.6152 78.8691 68.959 79.0801 68.3555C79.291 67.7461 79.5986 67.2246 80.0029 66.791C80.4072 66.3574 80.9053 66.0264 81.4971 65.7979C82.0889 65.5635 82.7451 65.4463 83.4658 65.4463C84.4033 65.4463 85.2061 65.6455 85.874 66.0439C86.5479 66.4365 87.0518 66.9463 87.3857 67.5732C87.7197 68.2002 87.8867 68.8389 87.8867 69.4893C87.8867 70.0928 87.7139 70.4854 87.3682 70.667C87.0225 70.8428 86.5361 70.9307 85.9092 70.9307ZM81.2158 69.5684H85.5664C85.5078 68.748 85.2852 68.1357 84.8984 67.7314C84.5176 67.3213 84.0137 67.1162 83.3867 67.1162C82.7891 67.1162 82.2969 67.3242 81.9102 67.7402C81.5293 68.1504 81.2979 68.7598 81.2158 69.5684ZM95.9814 73.8662C95.4014 74.3174 94.8389 74.6572 94.2939 74.8857C93.7549 75.1084 93.1484 75.2197 92.4746 75.2197C91.8594 75.2197 91.3174 75.0996 90.8486 74.8594C90.3857 74.6133 90.0283 74.2822 89.7764 73.8662C89.5244 73.4502 89.3984 72.999 89.3984 72.5127C89.3984 71.8564 89.6064 71.2969 90.0225 70.834C90.4385 70.3711 91.0098 70.0605 91.7363 69.9023C91.8887 69.8672 92.2666 69.7881 92.8701 69.665C93.4736 69.542 93.9893 69.4307 94.417 69.3311C94.8506 69.2256 95.3193 69.0996 95.8232 68.9531C95.7939 68.3203 95.665 67.8574 95.4365 67.5645C95.2139 67.2656 94.748 67.1162 94.0391 67.1162C93.4297 67.1162 92.9697 67.2012 92.6592 67.3711C92.3545 67.541 92.0908 67.7959 91.8682 68.1357C91.6514 68.4756 91.4961 68.7012 91.4023 68.8125C91.3145 68.918 91.1211 68.9707 90.8223 68.9707C90.5527 68.9707 90.3184 68.8857 90.1191 68.7158C89.9258 68.54 89.8291 68.3174 89.8291 68.0479C89.8291 67.626 89.9785 67.2158 90.2773 66.8174C90.5762 66.4189 91.042 66.0908 91.6748 65.833C92.3076 65.5752 93.0957 65.4463 94.0391 65.4463C95.0938 65.4463 95.9229 65.5723 96.5264 65.8242C97.1299 66.0703 97.5547 66.4629 97.8008 67.002C98.0527 67.541 98.1787 68.2559 98.1787 69.1465C98.1787 69.709 98.1758 70.1865 98.1699 70.5791C98.1699 70.9717 98.167 71.4082 98.1611 71.8887C98.1611 72.3398 98.2344 72.8115 98.3809 73.3037C98.5332 73.79 98.6094 74.1035 98.6094 74.2441C98.6094 74.4902 98.4922 74.7158 98.2578 74.9209C98.0293 75.1201 97.7686 75.2197 97.4756 75.2197C97.2295 75.2197 96.9863 75.1055 96.7461 74.877C96.5059 74.6426 96.251 74.3057 95.9814 73.8662ZM95.8232 70.3945C95.4717 70.5234 94.959 70.6611 94.2852 70.8076C93.6172 70.9482 93.1543 71.0537 92.8965 71.124C92.6387 71.1885 92.3926 71.3203 92.1582 71.5195C91.9238 71.7129 91.8066 71.9854 91.8066 72.3369C91.8066 72.7002 91.9443 73.0107 92.2197 73.2686C92.4951 73.5205 92.8555 73.6465 93.3008 73.6465C93.7754 73.6465 94.2119 73.5439 94.6104 73.3389C95.0146 73.1279 95.3105 72.8584 95.498 72.5303C95.7148 72.167 95.8232 71.5693 95.8232 70.7373V70.3945ZM100.622 73.7607V63.3545C100.622 62.874 100.728 62.5107 100.938 62.2646C101.155 62.0186 101.445 61.8955 101.809 61.8955C102.172 61.8955 102.465 62.0186 102.688 62.2646C102.91 62.5049 103.021 62.8682 103.021 63.3545V73.7607C103.021 74.2471 102.907 74.6133 102.679 74.8594C102.456 75.0996 102.166 75.2197 101.809 75.2197C101.457 75.2197 101.17 75.0938 100.947 74.8418C100.73 74.5898 100.622 74.2295 100.622 73.7607ZM34.291 90.9814H31.9004V94.6289C31.9004 95.1504 31.7773 95.5459 31.5312 95.8154C31.2852 96.085 30.9746 96.2197 30.5996 96.2197C30.207 96.2197 29.8906 96.0879 29.6504 95.8242C29.4102 95.5547 29.29 95.1621 29.29 94.6465V84.7148C29.29 84.1406 29.4219 83.7305 29.6855 83.4844C29.9492 83.2383 30.3682 83.1152 30.9424 83.1152H34.291C35.2812 83.1152 36.043 83.1914 36.5762 83.3438C37.1035 83.4902 37.5576 83.7334 37.9385 84.0732C38.3252 84.4131 38.6182 84.8291 38.8174 85.3213C39.0166 85.8135 39.1162 86.3672 39.1162 86.9824C39.1162 88.2949 38.7119 89.291 37.9033 89.9707C37.0947 90.6445 35.8906 90.9814 34.291 90.9814ZM33.6582 85.0752H31.9004V89.0127H33.6582C34.2734 89.0127 34.7861 88.9482 35.1963 88.8193C35.6123 88.6904 35.9287 88.4795 36.1455 88.1865C36.3623 87.8936 36.4707 87.5098 36.4707 87.0352C36.4707 86.4668 36.3037 86.0039 35.9697 85.6465C35.5947 85.2656 34.8242 85.0752 33.6582 85.0752ZM49.4258 91.3418C49.4258 92.0566 49.3145 92.7158 49.0918 93.3193C48.8691 93.9229 48.5469 94.4414 48.125 94.875C47.7031 95.3086 47.1992 95.6426 46.6133 95.877C46.0273 96.1055 45.3682 96.2197 44.6357 96.2197C43.9092 96.2197 43.2559 96.1025 42.6758 95.8682C42.0957 95.6338 41.5918 95.2998 41.1641 94.8662C40.7422 94.4268 40.4199 93.9111 40.1973 93.3193C39.9805 92.7217 39.8721 92.0625 39.8721 91.3418C39.8721 90.6152 39.9834 89.9502 40.2061 89.3467C40.4287 88.7432 40.748 88.2275 41.1641 87.7998C41.5801 87.3721 42.084 87.0439 42.6758 86.8154C43.2676 86.5811 43.9209 86.4639 44.6357 86.4639C45.3623 86.4639 46.0215 86.5811 46.6133 86.8154C47.2051 87.0498 47.7119 87.3838 48.1338 87.8174C48.5557 88.251 48.875 88.7666 49.0918 89.3643C49.3145 89.9619 49.4258 90.6211 49.4258 91.3418ZM47.0176 91.3418C47.0176 90.3633 46.8008 89.6016 46.3672 89.0566C45.9395 88.5117 45.3623 88.2393 44.6357 88.2393C44.167 88.2393 43.7539 88.3623 43.3965 88.6084C43.0391 88.8486 42.7637 89.2061 42.5703 89.6807C42.377 90.1553 42.2803 90.709 42.2803 91.3418C42.2803 91.9688 42.374 92.5166 42.5615 92.9854C42.7549 93.4541 43.0273 93.8145 43.3789 94.0664C43.7363 94.3125 44.1553 94.4355 44.6357 94.4355C45.3623 94.4355 45.9395 94.1631 46.3672 93.6182C46.8008 93.0674 47.0176 92.3086 47.0176 91.3418ZM59.0498 93.082C59.0498 93.7441 58.8887 94.3125 58.5664 94.7871C58.2441 95.2559 57.7666 95.6133 57.1338 95.8594C56.5068 96.0996 55.7422 96.2197 54.8398 96.2197C53.9785 96.2197 53.2402 96.0879 52.625 95.8242C52.0098 95.5605 51.5557 95.2324 51.2627 94.8398C50.9697 94.4414 50.8232 94.043 50.8232 93.6445C50.8232 93.3809 50.917 93.1553 51.1045 92.9678C51.292 92.7803 51.5293 92.6865 51.8164 92.6865C52.0684 92.6865 52.2617 92.748 52.3965 92.8711C52.5312 92.9941 52.6602 93.167 52.7832 93.3896C53.0293 93.8174 53.3223 94.1367 53.6621 94.3477C54.0078 94.5586 54.4766 94.6641 55.0684 94.6641C55.5488 94.6641 55.9414 94.5586 56.2461 94.3477C56.5566 94.1309 56.7119 93.8848 56.7119 93.6094C56.7119 93.1875 56.5508 92.8799 56.2285 92.6865C55.9121 92.4932 55.3877 92.3086 54.6553 92.1328C53.8291 91.9277 53.1553 91.7139 52.6338 91.4912C52.1182 91.2627 51.7051 90.9639 51.3945 90.5947C51.084 90.2256 50.9287 89.7715 50.9287 89.2324C50.9287 88.752 51.0723 88.2979 51.3594 87.8701C51.6465 87.4424 52.0684 87.1025 52.625 86.8506C53.1875 86.5928 53.8643 86.4639 54.6553 86.4639C55.2764 86.4639 55.833 86.5283 56.3252 86.6572C56.8232 86.7861 57.2363 86.959 57.5645 87.1758C57.8984 87.3926 58.1504 87.6328 58.3203 87.8965C58.4961 88.1602 58.584 88.418 58.584 88.6699C58.584 88.9453 58.4902 89.1709 58.3027 89.3467C58.1211 89.5225 57.8604 89.6104 57.5205 89.6104C57.2744 89.6104 57.0635 89.54 56.8877 89.3994C56.7178 89.2588 56.5215 89.0479 56.2988 88.7666C56.1172 88.5322 55.9033 88.3447 55.6572 88.2041C55.4111 88.0635 55.0771 87.9932 54.6553 87.9932C54.2217 87.9932 53.8613 88.0869 53.5742 88.2744C53.2871 88.4561 53.1436 88.6846 53.1436 88.96C53.1436 89.2119 53.249 89.4199 53.46 89.584C53.6709 89.7422 53.9551 89.874 54.3125 89.9795C54.6699 90.085 55.1621 90.2139 55.7891 90.3662C56.5332 90.5479 57.1396 90.7646 57.6084 91.0166C58.083 91.2686 58.4404 91.5674 58.6807 91.9131C58.9268 92.2529 59.0498 92.6426 59.0498 93.082ZM63.4795 87.8262V94.7607C63.4795 95.2412 63.3652 95.6045 63.1367 95.8506C62.9082 96.0967 62.6182 96.2197 62.2666 96.2197C61.915 96.2197 61.6279 96.0938 61.4053 95.8418C61.1885 95.5898 61.0801 95.2295 61.0801 94.7607V87.8965C61.0801 87.4219 61.1885 87.0645 61.4053 86.8242C61.6279 86.584 61.915 86.4639 62.2666 86.4639C62.6182 86.4639 62.9082 86.584 63.1367 86.8242C63.3652 87.0645 63.4795 87.3984 63.4795 87.8262ZM62.293 85.3477C61.959 85.3477 61.6719 85.2451 61.4316 85.04C61.1973 84.835 61.0801 84.5449 61.0801 84.1699C61.0801 83.8301 61.2002 83.5518 61.4404 83.335C61.6865 83.1123 61.9707 83.001 62.293 83.001C62.6035 83.001 62.8789 83.1006 63.1191 83.2998C63.3594 83.499 63.4795 83.7891 63.4795 84.1699C63.4795 84.5391 63.3623 84.8291 63.1279 85.04C62.8936 85.2451 62.6152 85.3477 62.293 85.3477ZM68.1816 84.2666V87.9316C68.6328 87.4629 69.0928 87.1055 69.5615 86.8594C70.0303 86.6074 70.6104 86.4814 71.3018 86.4814C72.0986 86.4814 72.7959 86.6719 73.3936 87.0527C73.9971 87.4277 74.4629 87.9756 74.791 88.6963C75.125 89.4111 75.292 90.2607 75.292 91.2451C75.292 91.9717 75.1982 92.6396 75.0107 93.249C74.8291 93.8525 74.5625 94.377 74.2109 94.8223C73.8594 95.2676 73.4316 95.6133 72.9277 95.8594C72.4297 96.0996 71.8789 96.2197 71.2754 96.2197C70.9062 96.2197 70.5576 96.1758 70.2295 96.0879C69.9072 96 69.6318 95.8857 69.4033 95.7451C69.1748 95.5986 68.9785 95.4492 68.8145 95.2969C68.6562 95.1445 68.4453 94.916 68.1816 94.6113V94.8486C68.1816 95.2998 68.0732 95.6426 67.8564 95.877C67.6396 96.1055 67.3643 96.2197 67.0303 96.2197C66.6904 96.2197 66.418 96.1055 66.2129 95.877C66.0137 95.6426 65.9141 95.2998 65.9141 94.8486V84.3721C65.9141 83.8857 66.0107 83.5195 66.2041 83.2734C66.4033 83.0215 66.6787 82.8955 67.0303 82.8955C67.3994 82.8955 67.6836 83.0156 67.8828 83.2559C68.082 83.4902 68.1816 83.8271 68.1816 84.2666ZM68.2959 91.3945C68.2959 92.3496 68.5127 93.085 68.9463 93.6006C69.3857 94.1104 69.96 94.3652 70.6689 94.3652C71.2725 94.3652 71.791 94.1045 72.2246 93.583C72.6641 93.0557 72.8838 92.3027 72.8838 91.3242C72.8838 90.6914 72.793 90.1465 72.6113 89.6895C72.4297 89.2324 72.1719 88.8809 71.8379 88.6348C71.5039 88.3828 71.1143 88.2568 70.6689 88.2568C70.2119 88.2568 69.8047 88.3828 69.4473 88.6348C69.0898 88.8809 68.8086 89.2412 68.6035 89.7158C68.3984 90.1846 68.2959 90.7441 68.2959 91.3945ZM79.6162 87.8262V94.7607C79.6162 95.2412 79.502 95.6045 79.2734 95.8506C79.0449 96.0967 78.7549 96.2197 78.4033 96.2197C78.0518 96.2197 77.7646 96.0938 77.542 95.8418C77.3252 95.5898 77.2168 95.2295 77.2168 94.7607V87.8965C77.2168 87.4219 77.3252 87.0645 77.542 86.8242C77.7646 86.584 78.0518 86.4639 78.4033 86.4639C78.7549 86.4639 79.0449 86.584 79.2734 86.8242C79.502 87.0645 79.6162 87.3984 79.6162 87.8262ZM78.4297 85.3477C78.0957 85.3477 77.8086 85.2451 77.5684 85.04C77.334 84.835 77.2168 84.5449 77.2168 84.1699C77.2168 83.8301 77.3369 83.5518 77.5771 83.335C77.8232 83.1123 78.1074 83.001 78.4297 83.001C78.7402 83.001 79.0156 83.1006 79.2559 83.2998C79.4961 83.499 79.6162 83.7891 79.6162 84.1699C79.6162 84.5391 79.499 84.8291 79.2646 85.04C79.0303 85.2451 78.752 85.3477 78.4297 85.3477ZM82.1035 94.7607V84.3545C82.1035 83.874 82.209 83.5107 82.4199 83.2646C82.6367 83.0186 82.9268 82.8955 83.29 82.8955C83.6533 82.8955 83.9463 83.0186 84.1689 83.2646C84.3916 83.5049 84.5029 83.8682 84.5029 84.3545V94.7607C84.5029 95.2471 84.3887 95.6133 84.1602 95.8594C83.9375 96.0996 83.6475 96.2197 83.29 96.2197C82.9385 96.2197 82.6514 96.0938 82.4287 95.8418C82.2119 95.5898 82.1035 95.2295 82.1035 94.7607ZM89.3896 87.8262V94.7607C89.3896 95.2412 89.2754 95.6045 89.0469 95.8506C88.8184 96.0967 88.5283 96.2197 88.1768 96.2197C87.8252 96.2197 87.5381 96.0938 87.3154 95.8418C87.0986 95.5898 86.9902 95.2295 86.9902 94.7607V87.8965C86.9902 87.4219 87.0986 87.0645 87.3154 86.8242C87.5381 86.584 87.8252 86.4639 88.1768 86.4639C88.5283 86.4639 88.8184 86.584 89.0469 86.8242C89.2754 87.0645 89.3896 87.3984 89.3896 87.8262ZM88.2031 85.3477C87.8691 85.3477 87.582 85.2451 87.3418 85.04C87.1074 84.835 86.9902 84.5449 86.9902 84.1699C86.9902 83.8301 87.1104 83.5518 87.3506 83.335C87.5967 83.1123 87.8809 83.001 88.2031 83.001C88.5137 83.001 88.7891 83.1006 89.0293 83.2998C89.2695 83.499 89.3896 83.7891 89.3896 84.1699C89.3896 84.5391 89.2725 84.8291 89.0381 85.04C88.8037 85.2451 88.5254 85.3477 88.2031 85.3477ZM92.0088 86.6748H92.2725V85.2334C92.2725 84.8467 92.2812 84.5449 92.2988 84.3281C92.3223 84.1055 92.3809 83.915 92.4746 83.7568C92.5684 83.5928 92.7031 83.4609 92.8789 83.3613C93.0547 83.2559 93.251 83.2031 93.4678 83.2031C93.7725 83.2031 94.0479 83.3174 94.2939 83.5459C94.458 83.6982 94.5605 83.8857 94.6016 84.1084C94.6484 84.3252 94.6719 84.6357 94.6719 85.04V86.6748H95.5508C95.8906 86.6748 96.1484 86.7568 96.3242 86.9209C96.5059 87.0791 96.5967 87.2842 96.5967 87.5361C96.5967 87.8584 96.4678 88.084 96.21 88.2129C95.958 88.3418 95.5947 88.4062 95.1201 88.4062H94.6719V92.8184C94.6719 93.1934 94.6836 93.4834 94.707 93.6885C94.7363 93.8877 94.8066 94.0518 94.918 94.1807C95.0352 94.3037 95.2227 94.3652 95.4805 94.3652C95.6211 94.3652 95.8115 94.3418 96.0518 94.2949C96.292 94.2422 96.4795 94.2158 96.6143 94.2158C96.8076 94.2158 96.9805 94.2949 97.1328 94.4531C97.291 94.6055 97.3701 94.7959 97.3701 95.0244C97.3701 95.4111 97.1592 95.707 96.7373 95.9121C96.3154 96.1172 95.709 96.2197 94.918 96.2197C94.168 96.2197 93.5996 96.0938 93.2129 95.8418C92.8262 95.5898 92.5713 95.2412 92.4482 94.7959C92.3311 94.3506 92.2725 93.7559 92.2725 93.0117V88.4062H91.9561C91.6104 88.4062 91.3467 88.3242 91.165 88.1602C90.9834 87.9961 90.8926 87.7881 90.8926 87.5361C90.8926 87.2842 90.9863 87.0791 91.1738 86.9209C91.3672 86.7568 91.6455 86.6748 92.0088 86.6748ZM100.657 87.8262V94.7607C100.657 95.2412 100.543 95.6045 100.314 95.8506C100.086 96.0967 99.7959 96.2197 99.4443 96.2197C99.0928 96.2197 98.8057 96.0938 98.583 95.8418C98.3662 95.5898 98.2578 95.2295 98.2578 94.7607V87.8965C98.2578 87.4219 98.3662 87.0645 98.583 86.8242C98.8057 86.584 99.0928 86.4639 99.4443 86.4639C99.7959 86.4639 100.086 86.584 100.314 86.8242C100.543 87.0645 100.657 87.3984 100.657 87.8262ZM99.4707 85.3477C99.1367 85.3477 98.8496 85.2451 98.6094 85.04C98.375 84.835 98.2578 84.5449 98.2578 84.1699C98.2578 83.8301 98.3779 83.5518 98.6182 83.335C98.8643 83.1123 99.1484 83.001 99.4707 83.001C99.7812 83.001 100.057 83.1006 100.297 83.2998C100.537 83.499 100.657 83.7891 100.657 84.1699C100.657 84.5391 100.54 84.8291 100.306 85.04C100.071 85.2451 99.793 85.3477 99.4707 85.3477ZM109.842 91.9307H105.148C105.154 92.4756 105.263 92.9561 105.474 93.3721C105.69 93.7881 105.975 94.1016 106.326 94.3125C106.684 94.5234 107.076 94.6289 107.504 94.6289C107.791 94.6289 108.052 94.5967 108.286 94.5322C108.526 94.4619 108.758 94.3564 108.98 94.2158C109.203 94.0693 109.408 93.9141 109.596 93.75C109.783 93.5859 110.026 93.3633 110.325 93.082C110.448 92.9766 110.624 92.9238 110.853 92.9238C111.099 92.9238 111.298 92.9912 111.45 93.126C111.603 93.2607 111.679 93.4512 111.679 93.6973C111.679 93.9141 111.594 94.1689 111.424 94.4619C111.254 94.749 110.996 95.0273 110.65 95.2969C110.311 95.5605 109.88 95.7803 109.358 95.9561C108.843 96.1318 108.248 96.2197 107.574 96.2197C106.033 96.2197 104.835 95.7803 103.979 94.9014C103.124 94.0225 102.696 92.8301 102.696 91.3242C102.696 90.6152 102.802 89.959 103.013 89.3555C103.224 88.7461 103.531 88.2246 103.936 87.791C104.34 87.3574 104.838 87.0264 105.43 86.7979C106.021 86.5635 106.678 86.4463 107.398 86.4463C108.336 86.4463 109.139 86.6455 109.807 87.0439C110.48 87.4365 110.984 87.9463 111.318 88.5732C111.652 89.2002 111.819 89.8389 111.819 90.4893C111.819 91.0928 111.646 91.4854 111.301 91.667C110.955 91.8428 110.469 91.9307 109.842 91.9307ZM105.148 90.5684H109.499C109.44 89.748 109.218 89.1357 108.831 88.7314C108.45 88.3213 107.946 88.1162 107.319 88.1162C106.722 88.1162 106.229 88.3242 105.843 88.7402C105.462 89.1504 105.23 89.7598 105.148 90.5684ZM121.575 93.082C121.575 93.7441 121.414 94.3125 121.092 94.7871C120.77 95.2559 120.292 95.6133 119.659 95.8594C119.032 96.0996 118.268 96.2197 117.365 96.2197C116.504 96.2197 115.766 96.0879 115.15 95.8242C114.535 95.5605 114.081 95.2324 113.788 94.8398C113.495 94.4414 113.349 94.043 113.349 93.6445C113.349 93.3809 113.442 93.1553 113.63 92.9678C113.817 92.7803 114.055 92.6865 114.342 92.6865C114.594 92.6865 114.787 92.748 114.922 92.8711C115.057 92.9941 115.186 93.167 115.309 93.3896C115.555 93.8174 115.848 94.1367 116.188 94.3477C116.533 94.5586 117.002 94.6641 117.594 94.6641C118.074 94.6641 118.467 94.5586 118.771 94.3477C119.082 94.1309 119.237 93.8848 119.237 93.6094C119.237 93.1875 119.076 92.8799 118.754 92.6865C118.438 92.4932 117.913 92.3086 117.181 92.1328C116.354 91.9277 115.681 91.7139 115.159 91.4912C114.644 91.2627 114.23 90.9639 113.92 90.5947C113.609 90.2256 113.454 89.7715 113.454 89.2324C113.454 88.752 113.598 88.2979 113.885 87.8701C114.172 87.4424 114.594 87.1025 115.15 86.8506C115.713 86.5928 116.39 86.4639 117.181 86.4639C117.802 86.4639 118.358 86.5283 118.851 86.6572C119.349 86.7861 119.762 86.959 120.09 87.1758C120.424 87.3926 120.676 87.6328 120.846 87.8965C121.021 88.1602 121.109 88.418 121.109 88.6699C121.109 88.9453 121.016 89.1709 120.828 89.3467C120.646 89.5225 120.386 89.6104 120.046 89.6104C119.8 89.6104 119.589 89.54 119.413 89.3994C119.243 89.2588 119.047 89.0479 118.824 88.7666C118.643 88.5322 118.429 88.3447 118.183 88.2041C117.937 88.0635 117.603 87.9932 117.181 87.9932C116.747 87.9932 116.387 88.0869 116.1 88.2744C115.812 88.4561 115.669 88.6846 115.669 88.96C115.669 89.2119 115.774 89.4199 115.985 89.584C116.196 89.7422 116.48 89.874 116.838 89.9795C117.195 90.085 117.688 90.2139 118.314 90.3662C119.059 90.5479 119.665 90.7646 120.134 91.0166C120.608 91.2686 120.966 91.5674 121.206 91.9131C121.452 92.2529 121.575 92.6426 121.575 93.082Z" fill="white" fill-opacity="0.98"/>
</svg>
