<svg width="349" height="46" viewBox="0 0 349 46" fill="none" xmlns="http://www.w3.org/2000/svg">
<g clip-path="url(#clip0)">
<path d="M239.678 0.0573703L230.837 0.080318V45.4401H271.378C275.813 43.5585 278.188 40.3058 279.106 36.5081H239.655L239.678 0.0573703ZM305.833 9.12129H339.651C344.349 8.19196 347.848 4.04435 348.829 0.0344226H296.648C297.624 4.04435 301.175 8.19196 305.833 9.12129ZM196.314 8.99509C201.013 7.62976 204.971 4.04435 205.935 0.0688428H156.313V26.8705H196.928V36.2787L165.072 36.3073C160.076 37.6956 155.854 41.0458 153.737 45.4745L156.313 45.4286H205.659V17.9615H165.072V8.99509H196.314V8.99509ZM298.014 45.4286H306.808V27.1688H338.824V45.4286H347.613V18.0418L298.014 17.9959V45.4286ZM87.9659 9.09261H121.778C126.482 8.15754 129.976 4.00993 130.956 2.37097e-06H78.7815C79.7568 4.00993 83.302 8.15754 87.9659 9.09261V9.09261ZM-1.52588e-05 0.103263C1.01537 4.07303 4.45163 8.11738 9.16143 9.13851H23.3941L24.1169 9.42534V45.3368H33.0087V9.42534L33.8119 9.13851H48.0617C52.8174 7.91086 56.1791 4.07303 57.183 0.103263V0.0172138H-1.52588e-05V0.103263V0.103263ZM87.9659 45.4344H121.778C126.482 44.4935 129.976 40.3574 130.956 36.3418H78.7815C79.7568 40.3574 83.302 44.4935 87.9659 45.4344V45.4344ZM87.9659 27.0197H121.778C126.482 26.0903 129.976 21.9427 130.956 17.9328H78.7815C79.7568 21.9427 83.302 26.0903 87.9659 27.0197Z" fill="#FED136"/>
</g>
<defs>
<clipPath id="clip0">
<rect width="348.829" height="45.4745" fill="white"/>
</clipPath>
</defs>
</svg>
